<svg width="1855" height="1895" viewBox="0 0 1855 1895" xmlns="http://www.w3.org/2000/svg" role="img" aria-label="Sree Info Technologies">
  <path d="M1772.0 832.8L1754.0 839.3L1738.4 852.6L1729.0 869.0L1726.2 887.0L1726.3 905.0L1731.0 923.0L1745.1 940.5L1762.3 953.1L1768.7 970.0L1767.2 988.0L1766.0 1006.0L1764.7 1024.0L1762.5 1042.0L1760.7 1060.0L1759.9 1078.0L1757.3 1096.0L1753.9 1114.0L1750.5 1132.0L1746.2 1150.0L1743.1 1168.0L1738.1 1186.0L1733.0 1204.0L1728.5 1222.0L1723.5 1240.0L1717.4 1258.0L1711.3 1276.0L1706.0 1294.0L1698.8 1312.0L1691.7 1330.0L1683.0 1348.0L1676.0 1366.0L1666.2 1384.0L1658.2 1402.0L1647.3 1420.0L1638.1 1438.0L1627.0 1456.0L1615.7 1474.0L1603.7 1492.0L1591.8 1509.8L1577.7 1527.0L1564.1 1545.0L1549.7 1563.0L1533.4 1580.1L1519.1 1595.6L1507.0 1607.7L1495.0 1619.7L1480.9 1633.0L1463.8 1648.4L1446.0 1663.4L1428.0 1677.8L1410.0 1689.9L1392.9 1703.3L1375.0 1714.9L1357.0 1726.3L1339.0 1736.9L1321.0 1746.2L1303.0 1756.0L1285.0 1764.3L1267.0 1772.8L1249.0 1780.1L1231.0 1787.3L1213.0 1793.5L1195.0 1800.1L1177.0 1806.0L1159.0 1810.0L1141.0 1815.5L1123.0 1820.1L1105.0 1823.1L1087.0 1826.7L1069.0 1831.1L1051.0 1833.9L1033.0 1835.5L1015.0 1836.6L997.0 1838.0L979.0 1838.6L961.0 1840.0L943.0 1840.0L925.0 1840.0L907.0 1840.0L889.0 1839.8L871.0 1838.1L853.0 1836.7L835.0 1834.5L817.0 1831.7L799.0 1828.4L781.0 1825.6L763.0 1822.6L745.0 1818.2L727.0 1813.7L709.0 1809.0L691.0 1804.3L673.0 1797.4L655.0 1791.3L637.0 1784.7L619.0 1776.9L601.0 1769.5L583.0 1761.1L568.8 1747.9L565.7 1730.0L560.9 1712.0L546.0 1695.3L528.0 1687.0L510.0 1686.2L492.1 1692.3L477.0 1706.5L468.8 1724.0L468.8 1742.0L476.2 1760.0L492.0 1774.9L510.0 1781.1L528.0 1782.1L546.0 1776.6L564.0 1778.0L582.0 1786.8L600.0 1795.0L618.0 1803.6L636.0 1811.0L654.0 1818.2L672.0 1824.7L690.0 1831.8L708.0 1837.5L726.0 1842.0L744.0 1848.3L762.0 1853.5L780.0 1856.3L798.0 1860.5L816.0 1864.3L834.0 1867.1L852.0 1869.3L870.0 1871.0L888.0 1872.7L906.0 1873.0L924.0 1873.8L942.0 1875.0L960.0 1875.0L978.0 1874.9L996.0 1873.2L1014.0 1873.0L1032.0 1871.5L1050.0 1870.9L1068.0 1868.8L1086.0 1865.3L1104.0 1861.8L1122.0 1858.3L1140.0 1854.9L1158.0 1850.5L1176.0 1845.1L1194.0 1839.8L1212.0 1835.5L1230.0 1828.5L1248.0 1821.9L1266.0 1815.8L1284.0 1807.3L1302.0 1798.8L1320.0 1790.1L1338.0 1781.0L1356.0 1771.5L1374.0 1761.0L1392.0 1749.8L1410.0 1737.5L1428.0 1725.4L1446.0 1711.9L1464.0 1698.7L1482.0 1683.6L1498.9 1668.6L1516.0 1653.3L1533.4 1637.1L1549.4 1620.4L1564.3 1604.0L1579.4 1586.1L1594.4 1568.9L1608.2 1551.0L1621.3 1533.0L1633.2 1515.0L1644.6 1497.0L1656.2 1479.0L1665.2 1461.0L1675.9 1443.6L1684.7 1426.0L1694.1 1408.0L1702.4 1390.0L1710.0 1372.0L1716.3 1354.0L1725.2 1336.0L1730.6 1318.0L1737.4 1300.0L1742.6 1282.0L1747.3 1264.0L1753.5 1246.0L1758.2 1228.0L1761.8 1210.0L1765.1 1192.0L1770.0 1174.0L1772.3 1156.0L1774.8 1138.0L1776.6 1120.0L1777.9 1102.0L1779.3 1084.0L1781.1 1066.0L1784.1 1048.0L1785.0 1030.0L1785.0 1012.0L1785.0 994.0L1785.0 976.0L1789.2 958.2L1806.0 946.0L1822.4 931.0L1831.5 913.0L1834.6 895.0L1832.5 877.0L1825.5 859.0L1810.9 842.8L1793.0 834.1L1775.0 832.4Z M329.0 810.5L325.6 825.0L328.9 843.0L333.0 861.0L336.8 879.0L343.0 897.0L351.2 915.0L360.5 933.0L371.7 951.0L384.4 969.0L398.5 987.0L413.6 1003.8L429.9 1018.9L447.0 1034.1L465.0 1048.4L482.6 1060.1L500.0 1071.8L518.0 1081.8L536.0 1091.3L554.0 1100.3L572.0 1108.3L590.0 1116.6L608.0 1123.5L626.0 1131.1L644.0 1137.9L662.0 1144.8L680.0 1151.4L698.0 1158.3L716.0 1164.5L734.0 1169.6L752.0 1177.4L770.0 1182.3L788.0 1186.7L806.0 1193.3L824.0 1199.3L842.0 1205.1L860.0 1212.2L878.0 1218.9L896.0 1227.4L914.0 1234.5L932.0 1243.8L950.0 1252.1L968.0 1262.3L986.0 1273.2L1003.8 1285.8L1018.9 1301.1L1033.6 1315.5L1044.2 1333.0L1052.9 1351.0L1056.4 1369.0L1057.3 1387.0L1054.6 1405.0L1048.7 1423.0L1039.2 1441.0L1025.7 1458.5L1012.2 1472.1L995.0 1486.1L977.0 1497.1L959.0 1507.2L941.0 1514.5L923.0 1521.4L905.0 1527.4L887.0 1530.5L869.0 1535.1L851.0 1538.4L833.0 1541.0L815.0 1542.2L797.0 1543.4L779.0 1544.0L761.0 1544.0L743.0 1544.0L725.0 1542.5L707.0 1541.6L689.0 1539.8L671.0 1537.3L653.0 1534.6L635.0 1531.1L617.0 1528.5L599.0 1524.3L581.0 1520.0L563.1 1515.9L554.5 1522.8L570.0 1531.2L588.0 1538.6L606.0 1544.8L624.0 1551.8L642.0 1555.9L660.0 1559.9L678.0 1563.8L696.0 1567.8L714.0 1571.5L732.0 1573.4L750.0 1576.5L768.0 1577.0L786.0 1577.8L804.0 1579.0L822.0 1579.2L840.0 1579.8L858.0 1579.3L876.0 1579.0L894.0 1578.9L912.0 1577.3L930.0 1576.9L948.0 1574.9L966.0 1572.0L984.0 1567.4L1002.0 1564.3L1020.0 1560.0L1038.0 1556.2L1056.0 1550.2L1074.0 1542.9L1092.0 1535.1L1110.0 1526.5L1128.0 1516.4L1146.0 1504.4L1164.0 1492.4L1180.8 1478.3L1193.4 1465.8L1208.2 1450.2L1220.7 1433.0L1230.4 1415.0L1238.6 1397.0L1244.7 1379.0L1247.0 1361.0L1247.0 1343.0L1246.8 1325.0L1243.6 1307.0L1238.6 1289.0L1231.1 1271.0L1220.3 1253.0L1205.6 1235.0L1189.0 1218.9L1171.0 1204.4L1153.0 1189.8L1135.0 1178.4L1117.0 1168.5L1099.0 1159.6L1081.0 1151.1L1063.0 1143.6L1045.0 1136.1L1027.0 1130.8L1009.0 1123.8L991.0 1118.1L973.0 1112.6L955.0 1106.3L937.0 1100.5L919.0 1095.1L901.0 1088.4L883.0 1084.3L865.0 1078.3L847.0 1073.2L829.0 1068.6L811.0 1063.1L793.0 1057.8L775.0 1053.3L757.0 1049.1L739.0 1042.4L721.0 1037.4L703.0 1033.0L685.0 1027.0L667.0 1021.0L649.0 1014.6L631.0 1008.3L613.0 1002.7L595.0 995.6L577.0 988.9L559.0 981.9L541.0 974.6L523.0 967.5L505.0 958.8L487.0 950.7L469.0 939.5L451.0 927.4L433.0 916.3L415.6 902.8L400.8 889.0L384.0 872.2L370.7 858.3L357.9 844.7L346.4 827.0L334.5 811.3Z" fill="#C88B2C" fill-rule="evenodd"/>
  <path d="M818.0 344.7L800.0 346.9L782.0 348.7L764.0 350.0L746.0 350.9L728.0 353.5L710.0 356.9L692.0 359.7L674.0 363.9L656.0 368.6L638.0 374.4L620.0 380.1L602.0 386.0L584.0 393.2L566.0 401.1L548.0 410.1L530.0 420.0L512.0 430.6L494.0 442.9L476.0 456.1L458.6 470.3L444.5 483.7L428.1 500.0L413.0 518.0L400.4 536.0L390.3 554.0L381.3 572.0L374.2 590.0L367.9 608.0L362.6 626.0L359.5 644.0L356.5 662.0L356.0 680.0L357.7 698.0L360.6 716.0L364.4 734.0L370.6 752.0L378.4 770.0L387.7 788.0L400.1 806.0L413.7 824.0L430.0 841.7L448.0 856.2L466.0 869.0L484.0 881.0L502.0 891.8L520.0 901.2L538.0 910.3L556.0 919.0L574.0 926.1L592.0 933.2L610.0 939.9L628.0 946.1L646.0 953.1L664.0 959.8L682.0 966.4L700.0 971.2L718.0 976.7L736.0 982.4L754.0 987.1L772.0 992.7L790.0 997.5L808.0 1002.2L826.0 1006.9L844.0 1011.5L862.0 1017.3L880.0 1022.5L898.0 1027.7L916.0 1033.2L934.0 1037.9L952.0 1043.5L970.0 1049.5L988.0 1054.5L1006.0 1060.0L1024.0 1065.6L1042.0 1071.9L1060.0 1078.8L1078.0 1086.2L1096.0 1093.9L1114.0 1102.2L1132.0 1110.6L1150.0 1119.8L1168.0 1129.3L1186.0 1139.4L1204.0 1151.3L1222.0 1165.6L1240.0 1181.5L1256.9 1199.0L1270.6 1217.0L1282.4 1235.0L1292.4 1253.0L1299.6 1271.0L1305.0 1289.0L1308.8 1307.0L1310.0 1325.0L1310.0 1343.0L1307.9 1361.0L1304.2 1379.0L1298.2 1397.0L1291.2 1415.0L1281.9 1433.0L1268.8 1451.0L1254.3 1469.0L1238.7 1485.2L1221.0 1500.7L1203.0 1514.6L1185.0 1527.3L1167.0 1538.3L1149.3 1547.8L1146.9 1558.0L1164.0 1554.8L1182.0 1548.3L1200.0 1541.4L1218.0 1533.4L1236.0 1523.9L1254.0 1515.2L1272.0 1505.5L1290.0 1493.8L1308.0 1481.0L1325.9 1467.5L1343.0 1451.2L1359.2 1436.0L1374.0 1420.1L1389.3 1403.0L1403.3 1385.0L1413.8 1367.0L1423.7 1349.0L1432.3 1331.0L1440.3 1313.0L1446.7 1295.0L1452.5 1277.0L1456.5 1259.0L1460.4 1241.0L1462.7 1223.0L1463.0 1205.0L1463.0 1187.0L1462.8 1169.0L1459.6 1151.0L1455.7 1133.0L1451.0 1115.0L1444.9 1097.0L1437.4 1079.0L1429.2 1061.0L1418.5 1043.0L1406.5 1025.0L1393.3 1007.3L1377.9 990.5L1361.0 974.5L1343.0 959.2L1325.0 946.4L1307.0 934.3L1289.0 923.5L1271.0 912.8L1253.0 903.7L1235.0 894.4L1217.0 885.9L1199.0 878.1L1181.0 871.6L1163.0 865.0L1145.0 858.7L1127.0 852.5L1109.0 847.1L1091.0 840.6L1073.0 834.6L1055.0 829.2L1037.0 824.0L1019.0 818.2L1001.0 812.6L983.0 808.0L965.0 802.4L947.0 796.6L929.0 791.7L911.0 786.1L893.0 780.8L875.0 775.8L857.0 770.8L839.0 764.7L821.0 758.8L803.0 752.9L785.0 747.5L767.0 740.6L749.0 733.2L731.0 725.7L713.0 718.2L695.0 709.1L677.0 698.6L659.0 686.8L641.0 673.9L623.5 657.8L610.1 640.0L600.0 622.0L593.0 604.0L589.3 586.0L589.3 568.0L592.9 550.0L598.8 532.0L608.2 514.0L620.8 496.0L634.6 480.7L648.3 467.8L666.0 454.1L684.0 441.6L702.0 431.9L720.0 423.8L738.0 416.3L756.0 410.5L774.0 404.6L792.0 400.7L810.0 396.1L828.0 393.8L846.0 389.9L864.0 387.7L882.0 387.0L900.0 387.0L918.0 386.9L936.0 385.2L954.0 385.6L972.0 387.0L990.0 387.0L1008.0 388.1L1026.0 389.6L1044.0 392.8L1062.0 394.8L1080.0 395.9L1098.0 399.9L1116.0 403.2L1134.0 406.5L1148.8 405.7L1139.0 396.6L1121.0 390.7L1103.0 384.9L1085.0 379.2L1067.0 373.9L1049.0 369.4L1031.0 365.9L1013.0 361.6L995.0 358.2L977.0 356.5L959.0 352.9L941.0 350.7L923.0 349.9L905.0 348.3L887.0 347.4L869.0 346.0L851.0 344.9L833.0 344.0Z M876.0 20.7L858.0 22.0L840.0 22.7L822.0 24.5L804.0 27.7L786.0 29.9L768.0 32.6L750.0 34.8L732.0 38.3L714.0 42.2L696.0 46.7L678.0 51.5L660.0 57.4L642.0 63.0L624.0 68.5L606.0 74.5L588.0 81.5L570.0 88.5L552.0 96.0L534.0 104.7L516.0 113.3L498.0 123.1L480.0 133.4L462.0 143.8L444.0 155.3L426.0 166.1L408.0 178.3L390.0 190.8L372.0 204.2L354.0 218.1L336.0 232.8L318.6 248.3L304.5 261.7L287.7 277.8L272.1 294.2L258.7 308.4L243.7 326.0L228.3 344.0L213.6 362.0L199.4 380.0L186.0 398.0L174.5 416.0L163.0 434.0L152.2 452.0L141.2 470.0L130.5 488.0L121.2 506.0L112.4 524.0L104.5 542.0L96.5 560.0L88.8 578.0L81.6 596.0L74.8 614.0L68.5 632.0L62.7 650.0L57.7 668.0L52.8 686.0L48.3 704.0L43.6 722.0L39.7 740.0L35.3 758.0L32.9 776.0L29.9 794.0L27.4 812.0L26.0 830.0L24.3 848.0L23.6 866.0L21.8 884.0L20.1 902.0L20.0 920.0L20.0 938.0L21.1 956.0L22.1 974.0L23.7 992.0L24.6 1010.0L26.0 1028.0L27.9 1046.0L31.4 1064.0L34.3 1082.0L36.8 1100.0L40.8 1118.0L44.8 1136.0L49.6 1154.0L54.0 1172.0L58.8 1190.0L63.8 1208.0L69.5 1226.0L75.5 1244.0L82.1 1262.0L89.8 1280.0L97.7 1298.0L105.8 1316.0L113.4 1334.0L122.3 1352.0L131.6 1370.0L142.0 1388.0L153.3 1406.0L164.6 1424.0L175.8 1442.0L188.0 1460.0L201.4 1478.0L215.5 1496.0L229.7 1513.2L244.3 1531.0L259.5 1548.3L275.7 1564.5L291.2 1578.6L309.0 1593.3L327.0 1608.0L345.0 1621.9L363.0 1633.8L378.9 1637.8L372.4 1623.7L359.1 1610.6L343.8 1594.6L327.4 1577.3L312.0 1560.1L296.8 1543.0L282.6 1525.1L267.6 1508.0L253.2 1490.0L240.0 1472.0L227.8 1454.0L215.7 1436.0L203.8 1418.0L191.9 1400.0L181.4 1382.0L171.5 1364.0L162.8 1346.0L154.1 1328.0L145.3 1310.0L136.6 1292.0L129.1 1274.0L121.3 1256.0L115.2 1238.0L109.2 1220.0L103.4 1202.0L97.6 1184.0L92.2 1166.0L87.3 1148.0L82.7 1130.0L79.3 1112.0L76.2 1094.0L72.8 1076.0L70.5 1058.0L67.7 1040.0L65.1 1022.0L63.1 1004.0L63.0 986.0L62.8 968.0L61.1 950.0L61.0 932.0L61.0 914.0L61.0 896.0L62.6 878.0L63.0 860.0L63.5 842.0L65.7 824.0L68.8 806.0L71.6 788.0L74.9 770.0L78.7 752.0L81.7 734.0L86.3 716.0L90.2 698.0L95.4 680.0L100.2 662.0L106.3 644.0L112.4 626.0L119.0 608.0L127.1 590.0L135.8 572.0L143.9 554.0L153.0 536.0L161.7 518.0L170.7 500.0L179.9 482.0L190.9 464.0L203.3 446.0L216.2 428.0L228.7 410.0L241.4 392.0L255.0 374.0L269.7 356.1L285.4 339.0L299.3 324.1L311.3 312.0L323.3 300.0L336.5 287.3L354.0 272.4L372.0 256.9L390.0 242.3L408.0 228.4L426.0 215.5L444.0 202.6L462.0 191.0L480.0 179.5L498.0 170.1L516.0 159.9L534.0 151.0L552.0 143.0L570.0 135.0L588.0 126.4L606.0 119.1L624.0 111.9L642.0 105.8L660.0 99.8L678.0 94.1L696.0 89.4L714.0 84.3L732.0 80.5L750.0 76.5L768.0 74.2L786.0 69.7L804.0 67.3L822.0 66.6L840.0 64.5L858.0 62.2L876.0 61.0L894.0 61.0L912.0 61.0L930.0 61.0L948.0 61.0L966.0 61.8L984.0 64.6L1002.0 66.7L1020.0 68.1L1038.0 69.6L1056.0 73.3L1074.0 75.8L1092.0 78.0L1110.0 82.7L1128.0 86.8L1146.0 91.8L1164.0 97.6L1182.0 103.1L1200.0 109.3L1218.0 116.2L1236.0 123.2L1254.0 130.6L1272.0 138.6L1290.0 146.5L1308.0 156.4L1326.0 166.7L1344.0 176.4L1362.0 187.1L1380.0 198.4L1398.0 210.3L1416.0 222.7L1434.0 236.3L1452.0 250.4L1470.0 265.3L1488.0 280.6L1505.4 296.1L1519.5 309.5L1536.1 325.9L1550.1 340.8L1565.4 358.0L1580.7 376.0L1595.6 394.0L1609.6 412.0L1622.9 430.0L1636.8 448.0L1648.6 466.0L1659.8 484.0L1671.7 502.0L1682.4 520.0L1691.5 538.0L1700.4 556.0L1710.4 570.5L1716.5 560.9L1709.0 543.0L1701.0 525.0L1692.7 507.0L1683.7 489.0L1674.3 471.0L1665.3 453.0L1655.6 435.0L1644.3 417.0L1632.6 399.0L1619.6 381.0L1606.6 363.0L1592.9 345.0L1578.0 327.0L1563.1 309.3L1548.9 293.8L1533.0 276.1L1516.0 259.6L1498.8 243.6L1481.0 227.7L1463.0 212.9L1445.0 198.9L1427.0 185.5L1409.0 172.0L1391.0 160.5L1373.0 149.1L1355.0 137.8L1337.0 127.0L1319.0 118.6L1301.0 109.8L1283.0 100.9L1265.0 92.8L1247.0 84.7L1229.0 77.5L1211.0 70.9L1193.0 64.3L1175.0 59.2L1157.0 53.5L1139.0 48.5L1121.0 44.3L1103.0 40.1L1085.0 36.6L1067.0 32.5L1049.0 30.0L1031.0 27.6L1013.0 25.1L995.0 22.2L977.0 22.0L959.0 21.9L941.0 20.3L923.0 20.0L905.0 20.0L887.0 20.0Z" fill="#08203F" fill-rule="evenodd"/>
</svg>